<svg width="95" height="34" viewBox="0 0 95 34" fill="none" xmlns="http://www.w3.org/2000/svg">
<g clip-path="url(#clip0)">
<path d="M47.317 10.5029L51.8346 10.2205C51.9331 10.9518 52.1324 11.5086 52.4326 11.8908C52.9229 12.5103 53.6217 12.8201 54.529 12.8201C55.206 12.8201 55.7284 12.6621 56.0961 12.346C56.2645 12.2148 56.4013 12.0477 56.4965 11.857C56.5916 11.6663 56.6427 11.4568 56.646 11.2439C56.6432 11.0398 56.5956 10.8387 56.5066 10.6548C56.4175 10.4709 56.2892 10.3087 56.1305 10.1794C55.7868 9.8668 54.9763 9.57073 53.699 9.2912C51.6164 8.82571 50.1311 8.20619 49.2433 7.43264C48.8113 7.07224 48.4663 6.61955 48.2339 6.10819C48.0016 5.59683 47.8879 5.03992 47.9012 4.4788C47.9045 3.68584 48.1437 2.91165 48.5886 2.25401C49.0967 1.51279 49.8144 0.938587 50.6506 0.604235C51.5671 0.203772 52.8272 0.00354004 54.431 0.00354004C56.3946 0.00354004 57.8918 0.367494 58.9229 1.0954C59.9539 1.82331 60.5673 2.9802 60.7632 4.56608L56.2869 4.82621C56.1723 4.14166 55.9226 3.64079 55.5377 3.32362C55.1528 3.00644 54.6258 2.84843 53.9568 2.84957C53.4052 2.84957 52.9893 2.96765 52.711 3.2004C52.5795 3.3011 52.4732 3.43076 52.4004 3.57922C52.3277 3.72768 52.2905 3.8909 52.2917 4.05609C52.2958 4.18428 52.3289 4.30989 52.3884 4.42364C52.4479 4.5374 52.5323 4.63637 52.6353 4.71326C52.8587 4.9152 53.3897 5.10346 54.2283 5.27802C56.3041 5.72298 57.7933 6.17364 58.696 6.63001C59.5987 7.08638 60.2517 7.6517 60.655 8.32599C61.0665 9.01 61.2789 9.79452 61.2684 10.5919C61.2734 11.5573 60.9892 12.5023 60.4522 13.3061C59.8933 14.1442 59.0982 14.7991 58.1668 15.1886C57.1873 15.6165 55.9535 15.8304 54.4654 15.8304C51.8523 15.8304 50.0423 15.3295 49.0354 14.3278C48.0284 13.3261 47.4556 12.0511 47.317 10.5029ZM1.07742 15.5737V0.261959H8.99222C10.4597 0.261959 11.5812 0.386889 12.3568 0.636751C13.1207 0.879762 13.7812 1.37009 14.2332 2.02981C14.7253 2.76207 14.9757 3.6289 14.9498 4.50961C14.9697 5.27816 14.7797 6.03767 14.3999 6.70702C14.0355 7.32752 13.5195 7.84617 12.8998 8.21475C12.3788 8.50094 11.8166 8.70529 11.233 8.82057C11.6697 8.94865 12.0857 9.13825 12.4685 9.38362C12.753 9.61913 13.009 9.88675 13.2314 10.1811C13.4817 10.4737 13.7032 10.7894 13.893 11.1241L16.1922 15.5737H10.8257L8.28941 10.8896C7.9675 10.2838 7.68111 9.89019 7.43023 9.70878C7.08835 9.47282 6.68108 9.34898 6.26517 9.35453H5.84245V15.5737H1.07742ZM5.84245 6.46229H7.84951C8.27426 6.43071 8.69527 6.36082 9.10735 6.2535C9.41529 6.19466 9.68994 6.02309 9.87718 5.7726C10.0752 5.51958 10.1807 5.20688 10.1762 4.88611C10.1891 4.67316 10.1533 4.46006 10.0714 4.26291C9.98956 4.06576 9.86379 3.88971 9.70363 3.74804C9.38974 3.48335 8.79919 3.351 7.93199 3.351H5.84245V6.46229ZM0 28.676L4.51759 28.3953C4.61611 29.1267 4.81544 29.6834 5.11558 30.0657C5.60016 30.6852 6.30068 30.9949 7.21715 30.9949C7.89419 30.9949 8.41657 30.8363 8.7843 30.5192C8.9527 30.388 9.08949 30.2209 9.18464 30.0302C9.27979 29.8395 9.33088 29.63 9.33418 29.417C9.33115 29.2129 9.28346 29.012 9.19442 28.8281C9.10539 28.6443 8.97715 28.482 8.81867 28.3526C8.47499 28.04 7.6645 27.7445 6.38718 27.4661C4.30451 26.9983 2.81927 26.3788 1.93145 25.6075C1.49947 25.2467 1.15455 24.7937 0.922233 24.282C0.689918 23.7704 0.576165 23.2133 0.5894 22.652C0.593204 21.8591 0.832347 21.085 1.27675 20.4272C1.78483 19.6859 2.50253 19.1117 3.33879 18.7774C4.25525 18.3769 5.51539 18.1767 7.1192 18.1767C9.08272 18.1767 10.58 18.5406 11.611 19.2686C12.642 19.9965 13.2555 21.1534 13.4514 22.7392L8.98363 23.0011C8.86907 22.3165 8.61934 21.8151 8.23442 21.4968C7.84951 21.1785 7.32311 21.0222 6.65524 21.0279C6.10422 21.0279 5.68895 21.1419 5.40942 21.3701C5.27794 21.4708 5.17165 21.6005 5.09891 21.749C5.02616 21.8974 4.98894 22.0606 4.99014 22.2258C4.99406 22.3543 5.02699 22.4803 5.08649 22.5943C5.14598 22.7084 5.23052 22.8076 5.33382 22.8847C5.5572 23.0866 6.08818 23.2743 6.92674 23.4477C9.00253 23.8927 10.4918 24.3434 11.3945 24.7997C12.2972 25.2561 12.9502 25.8214 13.3534 26.4957C13.7647 27.1798 13.9771 27.9643 13.9669 28.7616C13.9721 29.7271 13.6879 30.6721 13.1507 31.4758C12.5918 32.3139 11.7967 32.9688 10.8652 33.3584C9.88577 33.7862 8.65199 34.0001 7.16388 34.0001C4.55081 34.0001 2.7408 33.4993 1.73383 32.4975C0.72687 31.4958 0.148925 30.222 0 28.676ZM28.0094 27.4763L32.1713 28.7291C31.9411 29.7806 31.4908 30.772 30.8499 31.6384C30.2658 32.404 29.4975 33.0108 28.616 33.4028C27.7247 33.7987 26.5906 33.9967 25.2136 33.9967C23.5434 33.9967 22.179 33.7554 21.1205 33.2728C20.062 32.7902 19.1455 31.9396 18.3711 30.7211C17.6012 29.5038 17.2169 27.9458 17.2181 26.0473C17.2181 23.5168 17.8939 21.5709 19.2457 20.2098C20.5975 18.8487 22.5106 18.1687 24.9851 18.1698C26.9223 18.1698 28.4442 18.56 29.5508 19.3404C30.6574 20.1208 31.4799 21.3188 32.0184 22.9343L27.8255 23.8636C27.7271 23.4994 27.5717 23.1529 27.365 22.8368C27.1111 22.4856 26.7772 22.1994 26.3907 22.0016C25.9902 21.8029 25.5477 21.7025 25.1002 21.709C24.0245 21.709 23.2003 22.1403 22.6275 23.0028C22.1922 23.6428 21.9751 24.6474 21.9762 26.0165C21.9762 27.7119 22.2351 28.8745 22.7529 29.5043C23.2707 30.1341 23.9976 30.4484 24.9335 30.4473C25.8408 30.4473 26.5282 30.1934 26.9956 29.6857C27.463 29.178 27.8009 28.4416 28.0094 27.4763ZM35.8297 18.4351H40.5776V23.7883H45.767V18.4351H50.5355V33.74H45.767V27.5534H40.5776V33.7451H35.8297V18.4351ZM53.4911 26.097C53.4911 23.6006 54.1899 21.6554 55.5875 20.2612C56.9851 18.867 58.9326 18.171 61.43 18.1733C63.9869 18.1733 65.9573 18.8578 67.3411 20.2269C68.725 21.596 69.4187 23.5111 69.4221 25.972C69.4221 27.7621 69.1197 29.2294 68.5148 30.3737C67.9262 31.503 67.0141 32.4328 65.8943 33.0452C64.7487 33.6818 63.3247 34.0001 61.6224 34.0001C59.8903 34.0001 58.4583 33.7252 57.3265 33.1752C56.1637 32.6013 55.2014 31.6919 54.5651 30.5654C53.8479 29.3765 53.4899 27.8871 53.4911 26.097ZM58.2389 26.1192C58.2389 27.6652 58.5253 28.7753 59.0981 29.4496C59.6709 30.1238 60.4556 30.461 61.4523 30.461C62.473 30.461 63.2629 30.1307 63.8219 29.4701C64.381 28.8095 64.6605 27.6229 64.6605 25.9104C64.6605 24.4694 64.3684 23.4164 63.7841 22.7512C63.1999 22.0861 62.4083 21.7541 61.4093 21.7552C60.975 21.7396 60.5428 21.8221 60.1449 21.9963C59.7471 22.1706 59.3939 22.4322 59.1119 22.7615C58.5311 23.446 58.2401 24.5653 58.2389 26.1192Z" fill="#FBFBFB"/>
<path d="M67.4081 26.0969C67.4081 23.6006 68.1069 21.6553 69.5046 20.2611C70.9022 18.8669 72.8496 18.1709 75.347 18.1732C77.9062 18.1732 79.8772 18.8578 81.2599 20.2269C82.6426 21.596 83.334 23.5116 83.334 25.9737C83.334 27.7638 83.0321 29.231 82.4284 30.3754C81.8393 31.5043 80.9274 32.4339 79.8079 33.0468C78.6623 33.6835 77.2384 34.0018 75.536 34.0018C73.8028 34.0018 72.3708 33.7268 71.2401 33.1769C70.0771 32.6026 69.1144 31.6932 68.477 30.567C67.7644 29.3771 67.4081 27.887 67.4081 26.0969ZM72.1577 26.1192C72.1577 27.6651 72.4441 28.7752 73.0169 29.4495C73.5897 30.1238 74.3756 30.4615 75.3745 30.4626C76.3952 30.4626 77.1851 30.1323 77.7441 29.4718C78.3032 28.8112 78.5827 27.6246 78.5827 25.9121C78.5827 24.4711 78.2911 23.418 77.708 22.7529C77.1249 22.0877 76.3334 21.7557 75.3333 21.7569C74.8982 21.7402 74.465 21.8219 74.0662 21.9959C73.6674 22.1699 73.3133 22.4316 73.0306 22.7614C72.4475 23.446 72.1566 24.5652 72.1577 26.1192Z" fill="#FBFBFB"/>
<path d="M82.8391 18.4351H87.5887V29.9715H95V33.7365H82.8391V18.4351Z" fill="#FBFBFB"/>
</g>
<defs>
<clipPath id="clip0">
<rect width="95" height="34" fill="white"/>
</clipPath>
</defs>
</svg>
