<svg width="160" height="160" viewBox="0 0 160 160" fill="none" xmlns="http://www.w3.org/2000/svg">
<path d="M80.0003 160C124.062 160 160 124.063 160 80.0003C160 35.9375 124.062 0 80.0003 0C35.9378 0 0 35.9375 0 80.0003C0 124.063 35.9378 160 80.0003 160Z" fill="#167DE5"/>
<path d="M45.7649 31.3501H125.505L143.599 113.773L136.972 113.809L136.813 142.909L143.643 142.945L143.599 147.808H35.8077C25.6058 146.991 26.5158 128.278 25.9702 123.269L35.0521 39.482C35.0871 35.7585 38.8415 31.3501 45.7649 31.3501Z" fill="#8568C5"/>
<path d="M45.7647 31.3501H53.4016L46.4507 147.808L34.531 147.465C24.5635 147.073 23.0747 123.245 26.4019 114.606L35.0522 39.4817C35.0872 35.7585 38.8419 31.3501 45.7647 31.3501Z" fill="#AD5188"/>
<path d="M37.1958 113.764H141.532C136.798 123.746 136.921 133.59 141.532 143.303H37.1958C26.0036 143.304 26.0052 113.764 37.1958 113.764Z" fill="white"/>
<path d="M29.609 121.885H138.74C138.676 122.18 138.617 122.476 138.562 122.771H29.3994C29.4647 122.472 29.5334 122.176 29.609 121.885ZM138.229 124.992C138.195 125.288 138.165 125.583 138.14 125.879H28.9234C28.9503 125.582 28.984 125.286 29.0215 124.992H138.229ZM138.031 128.1C138.027 128.395 138.027 128.691 138.031 128.986H28.8075C28.8031 128.691 28.8031 128.395 28.8075 128.1H138.031ZM138.142 131.207C138.168 131.503 138.197 131.798 138.231 132.093H29.0231C28.9859 131.799 28.9531 131.503 28.9259 131.207H138.142ZM138.564 134.314C138.618 134.609 138.678 134.905 138.742 135.201H29.6134C29.5365 134.909 29.4678 134.613 29.4028 134.314H138.564ZM139.296 137.421C139.38 137.716 139.469 138.012 139.562 138.307H30.7169C30.5831 138.021 30.455 137.724 30.3356 137.421H139.296ZM140.338 140.528C140.453 140.824 140.571 141.12 140.693 141.415H32.82C32.5475 141.144 32.289 140.847 32.0437 140.528H140.338Z" fill="#ECF0F1"/>
<path d="M41.8936 129.05H58.1979V160L49.9779 149.903L41.8936 160V129.05Z" fill="#AD5188"/>
<path d="M48.1127 119.958H132.147H136.938H139.21C139.775 117.905 140.545 115.849 141.523 113.785C141.525 113.778 141.529 113.771 141.533 113.764H134.075H48.4827H37.1949C26.8389 113.764 26.0652 139.06 34.877 142.835C31.893 134.123 34.2767 119.958 42.0264 119.958H48.1127Z" fill="#DFE1E3"/>
<path d="M78.1978 98.373H109.629V96.1189H78.1978V98.373Z" fill="#ECF0F1"/>
<path d="M80.7275 102.636H107.099V100.948H80.7275V102.636Z" fill="#ECF0F1"/>
</svg>
