<svg width="160" height="160" viewBox="0 0 160 160" fill="none" xmlns="http://www.w3.org/2000/svg">
<path d="M80 160C124.183 160 160 124.183 160 80C160 35.8172 124.183 0 80 0C35.8172 0 0 35.8172 0 80C0 124.183 35.8172 160 80 160Z" fill="#167DE5"/>
<path d="M160 80C160 77.6675 159.894 75.36 159.699 73.0781C145.892 59.2719 123.31 36.6897 123.31 36.6897L36.6895 123.31C36.6895 123.31 59.2723 145.893 73.0779 159.699C75.3598 159.894 77.6673 160 79.9998 160C124.183 160 160 124.183 160 80Z" fill="#167DE5"/>
<path d="M80 18.75L64.751 49.375L80 80L112.438 69.1275L123.31 36.6897C112.226 25.6056 96.9138 18.75 80 18.75Z" fill="#FFE278"/>
<path d="M79.9998 18.75C64.3245 18.75 48.6491 24.73 36.6895 36.6897L47.562 69.1275L79.9998 80V18.75Z" fill="#B0D16F"/>
<path d="M36.6897 36.6897C25.6056 47.7738 18.75 63.0863 18.75 80L49.375 95.2491L80 80L36.6897 36.6897Z" fill="#45C5FF"/>
<path d="M18.75 80C18.75 95.6753 24.73 111.351 36.6897 123.31L69.1275 112.438L80 80H18.75Z" fill="#0CA8ED"/>
<path d="M36.6895 123.31C47.7735 134.394 63.086 141.25 79.9998 141.25L95.2488 110.625L79.9998 80L36.6895 123.31Z" fill="#1365C2"/>
<path d="M80 141.25C95.6753 141.25 111.351 135.27 123.31 123.31L112.438 90.8725L80 80V141.25Z" fill="#F71E78"/>
<path d="M123.31 123.31C134.394 112.226 141.25 96.9138 141.25 80L110.625 64.751L80 80L123.31 123.31Z" fill="#FF776B"/>
<path d="M123.31 36.6897L80 80H141.25C141.25 64.3247 135.27 48.6494 123.31 36.6897Z" fill="#FFB54C"/>
</svg>
