<svg width="160" height="160" viewBox="0 0 160 160" fill="none" xmlns="http://www.w3.org/2000/svg">
<g clip-path="url(#clip0)">
<path d="M80 160C124.183 160 160 124.183 160 80C160 35.8172 124.183 0 80 0C35.8172 0 0 35.8172 0 80C0 124.183 35.8172 160 80 160Z" fill="#167DE5"/>
<path d="M160 80C160 74.45 159.434 69.0322 158.358 63.8004L148.641 54.0838L133.365 67.4838L87.9134 22.0919L74.3002 35.6932L80.9834 42.5507L62.3149 82.8638L42.3665 70.805L25.4734 54.0835L13.5762 65.9807L30.6471 83.2079L42.1659 109.524L34.5921 129.427L63.4452 158.28C68.7874 159.405 74.324 160 79.9999 160C124.183 160 160 124.183 160 80Z" fill="#167DE5"/>
<path d="M106.103 75.1913L80.0003 29.0104L53.8968 75.1913L18.4165 58.5029L37.3524 112.474H122.648L141.584 58.5029L106.103 75.1913Z" fill="#FFEF4A"/>
<path d="M141.585 58.5032L125.407 104.609L122.647 112.475H80.0005V29.0094L84.2692 36.5594L106.104 75.1907L141.585 58.5032Z" fill="#FFD321"/>
<path d="M34.5928 104.609H125.407V129.428H34.5928V104.609Z" fill="#FFD321"/>
<path d="M125.407 104.609V129.428H80.0004V113.603L78.7129 112.475H80.0004V104.609H125.407Z" fill="#FFB454"/>
<path d="M82.8031 37.1636C87.9628 35.6179 90.8924 30.1822 89.3467 25.0226C87.8009 19.8629 82.3652 16.9333 77.2056 18.479C72.046 20.0248 69.1163 25.4605 70.6621 30.6201C72.2078 35.7797 77.6435 38.7094 82.8031 37.1636Z" fill="#FFD321"/>
<path d="M89.7531 27.7875C89.7531 31.6407 87.5156 34.975 84.2688 36.5594C82.9813 37.1875 81.5312 37.5407 80 37.5407V18.0344C85.3844 18.0344 89.7531 22.4032 89.7531 27.7875Z" fill="#FFB454"/>
<path d="M18.4165 67.4816C23.143 67.4816 26.9747 63.65 26.9747 58.9235C26.9747 54.197 23.143 50.3654 18.4165 50.3654C13.69 50.3654 9.8584 54.197 9.8584 58.9235C9.8584 63.65 13.69 67.4816 18.4165 67.4816Z" fill="#FFD321"/>
<path d="M141.584 67.4816C146.311 67.4816 150.142 63.65 150.142 58.9235C150.142 54.197 146.311 50.3654 141.584 50.3654C136.857 50.3654 133.026 54.197 133.026 58.9235C133.026 63.65 136.857 67.4816 141.584 67.4816Z" fill="#FFB454"/>
<path d="M80.0003 76.7378L69.73 85.4456V93.0597V96.9928V104.609L80.0003 113.604L90.2706 104.609V96.9928V93.0597V85.4456L80.0003 76.7378Z" fill="#DB466D"/>
<path d="M90.2723 85.4469V104.609L81.2879 112.475L80.0004 113.603L78.7129 112.475H80.0004V76.7375L90.2723 85.4469Z" fill="#EF7092"/>
<path d="M78.7129 112.475H80.0004V113.603L78.7129 112.475Z" fill="#939189"/>
</g>
<defs>
<clipPath id="clip0">
<rect width="160" height="160" fill="white"/>
</clipPath>
</defs>
</svg>
