<svg width="160" height="160" viewBox="0 0 160 160" fill="none" xmlns="http://www.w3.org/2000/svg">
<path d="M80 160C124.183 160 160 124.183 160 80C160 35.8172 124.183 0 80 0C35.8172 0 0 35.8172 0 80C0 124.183 35.8172 160 80 160Z" fill="#167DE5"/>
<path d="M160 80C160 70.1422 158.212 60.7028 154.952 51.9828L131.484 28.5156H28.5156V131.484L51.9828 154.952C60.7028 158.212 70.1422 160 80 160C124.183 160 160 124.183 160 80Z" fill="#167DE5"/>
<path d="M131.484 28.5156H80V80H131.484V28.5156Z" fill="#9E78F1"/>
<path d="M109.762 80.0001V78.0722C109.762 77.4463 110.153 76.9013 110.731 76.6594C112.906 75.7476 114.445 73.5966 114.445 71.1004C114.445 67.7841 111.732 65.0707 108.415 65.0707H103.069C99.7531 65.0707 97.0397 67.7841 97.0397 71.1004C97.0397 73.5969 98.5787 75.7476 100.754 76.6594C101.331 76.9013 101.723 77.4463 101.723 78.0722V80.0001H80V131.484H131.484V80.0001H109.762Z" fill="#2BC194"/>
<path d="M88.6641 97.0394C86.1675 97.0394 84.0169 98.5784 83.105 100.754C82.8631 101.331 82.3181 101.722 81.6922 101.722H80V80H28.5156V131.484H80V109.762H81.6922C82.3181 109.762 82.8631 110.153 83.105 110.731C84.0169 112.906 86.1678 114.445 88.6641 114.445C91.9803 114.445 94.6937 111.732 94.6937 108.415V103.069C94.6937 99.7528 91.9803 97.0394 88.6641 97.0394Z" fill="#9A5EB1"/>
<path d="M94.6937 103.069V108.416C94.6937 110.075 94.0156 111.581 92.9219 112.672C91.8313 113.766 90.325 114.444 88.6656 114.444C86.1688 114.444 84.0156 112.906 83.1063 110.731C82.8625 110.153 82.3188 109.763 81.6906 109.763H80V101.722H81.6906C82.3188 101.722 82.8625 101.331 83.1063 100.753C84.0156 98.5781 86.1688 97.0406 88.6656 97.0406C91.9813 97.0406 94.6937 99.7531 94.6937 103.069Z" fill="#C752B7"/>
<path d="M80 80V28.5156H28.5156V80H50.2381V82.2694C50.2381 82.8953 49.8466 83.4403 49.2697 83.6822C47.0944 84.5941 45.5553 86.745 45.5553 89.2412C45.5553 92.5575 48.2688 95.2709 51.585 95.2709H56.9309C60.2472 95.2709 62.9606 92.5575 62.9606 89.2412C62.9606 86.745 61.4216 84.5941 59.2463 83.6822C58.6691 83.4403 58.2778 82.8953 58.2778 82.2694V80H80Z" fill="#F9F871"/>
<path d="M76.5863 49.2693C75.6744 47.094 73.5235 45.5549 71.0272 45.5549C67.711 45.5549 64.9976 48.2684 64.9976 51.5846V56.9306C64.9976 60.2468 67.711 62.9603 71.0272 62.9603C73.5238 62.9603 75.6744 61.4212 76.5863 59.2459C76.8282 58.6687 77.3732 58.2774 77.9991 58.2774H79.9997V50.2377H77.9991C77.3735 50.2381 76.8282 49.8465 76.5863 49.2693Z" fill="#ADB7FF"/>
</svg>
