<svg width="188" height="34" viewBox="0 0 188 34" fill="none" xmlns="http://www.w3.org/2000/svg">
<path d="M1.42 26C1.18 26 0.964 25.916 0.772 25.748C0.604 25.556 0.52 25.34 0.52 25.1V1.7C0.52 1.436 0.604 1.22 0.772 1.052C0.964 0.883999 1.18 0.799998 1.42 0.799998H11.212C14.356 0.799998 16.804 1.52 18.556 2.96C20.332 4.376 21.22 6.392 21.22 9.008C21.22 10.688 20.824 12.116 20.032 13.292C19.24 14.468 18.148 15.368 16.756 15.992L21.688 24.848C21.76 24.992 21.796 25.124 21.796 25.244C21.796 25.436 21.712 25.616 21.544 25.784C21.4 25.928 21.232 26 21.04 26H16.252C15.556 26 15.064 25.676 14.776 25.028L10.672 17.108H7V25.1C7 25.364 6.904 25.58 6.712 25.748C6.544 25.916 6.328 26 6.064 26H1.42ZM11.14 11.996C12.244 11.996 13.084 11.732 13.66 11.204C14.236 10.652 14.524 9.896 14.524 8.936C14.524 7.976 14.236 7.22 13.66 6.668C13.108 6.092 12.268 5.804 11.14 5.804H7V11.996H11.14ZM45.6066 26.36C43.3266 26.36 41.3706 26.024 39.7386 25.352C38.1066 24.68 36.8706 23.804 36.0306 22.724C35.2146 21.62 34.7826 20.42 34.7346 19.124C34.7346 18.932 34.8066 18.764 34.9506 18.62C35.1186 18.452 35.3106 18.368 35.5266 18.368H40.0626C40.3506 18.368 40.5786 18.428 40.7466 18.548C40.9386 18.644 41.1306 18.8 41.3226 19.016C41.6346 19.64 42.1386 20.156 42.8346 20.564C43.5306 20.972 44.4546 21.176 45.6066 21.176C46.9746 21.176 48.0186 20.96 48.7386 20.528C49.4586 20.096 49.8186 19.508 49.8186 18.764C49.8186 18.236 49.6266 17.804 49.2426 17.468C48.8826 17.132 48.3066 16.832 47.5146 16.568C46.7226 16.304 45.5466 16.004 43.9866 15.668C41.1066 15.068 38.9466 14.192 37.5066 13.04C36.0906 11.864 35.3826 10.196 35.3826 8.036C35.3826 6.572 35.7906 5.264 36.6066 4.112C37.4226 2.96 38.5866 2.06 40.0986 1.412C41.6106 0.763999 43.3746 0.439999 45.3906 0.439999C47.4786 0.439999 49.2906 0.799999 50.8266 1.52C52.3626 2.24 53.5266 3.152 54.3186 4.256C55.1346 5.336 55.5666 6.404 55.6146 7.46C55.6146 7.676 55.5426 7.856 55.3986 8C55.2546 8.144 55.0746 8.216 54.8586 8.216H50.1066C49.8186 8.216 49.5786 8.168 49.3866 8.072C49.2186 7.976 49.0626 7.82 48.9186 7.604C48.7746 7.052 48.3786 6.584 47.7306 6.2C47.1066 5.816 46.3266 5.624 45.3906 5.624C44.3106 5.624 43.4826 5.816 42.9066 6.2C42.3306 6.584 42.0426 7.148 42.0426 7.892C42.0426 8.396 42.1986 8.816 42.5106 9.152C42.8466 9.488 43.3746 9.8 44.0946 10.088C44.8386 10.352 45.8946 10.628 47.2626 10.916C49.4946 11.324 51.2706 11.84 52.5906 12.464C53.9346 13.064 54.9186 13.856 55.5426 14.84C56.1666 15.8 56.4786 17.012 56.4786 18.476C56.4786 20.084 56.0106 21.488 55.0746 22.688C54.1626 23.864 52.8786 24.776 51.2226 25.424C49.5906 26.048 47.7186 26.36 45.6066 26.36ZM71.7817 26C71.5417 26 71.3257 25.916 71.1337 25.748C70.9657 25.556 70.8817 25.34 70.8817 25.1V1.7C70.8817 1.436 70.9657 1.22 71.1337 1.052C71.3257 0.883999 71.5417 0.799998 71.7817 0.799998H76.5337C76.7977 0.799998 77.0137 0.883999 77.1817 1.052C77.3497 1.22 77.4337 1.436 77.4337 1.7V20.564H88.3417C88.6057 20.564 88.8217 20.66 88.9897 20.852C89.1577 21.02 89.2417 21.236 89.2417 21.5V25.1C89.2417 25.34 89.1577 25.556 88.9897 25.748C88.8217 25.916 88.6057 26 88.3417 26H71.7817ZM108.382 26.36C107.11 26.36 105.946 26.12 104.89 25.64C103.858 25.136 103.042 24.464 102.442 23.624C101.866 22.76 101.578 21.812 101.578 20.78C101.578 19.124 102.25 17.792 103.594 16.784C104.962 15.776 106.834 15.08 109.21 14.696L113.71 14.012V13.508C113.71 12.596 113.518 11.924 113.134 11.492C112.75 11.06 112.102 10.844 111.19 10.844C110.638 10.844 110.182 10.94 109.822 11.132C109.462 11.324 109.09 11.588 108.706 11.924C108.37 12.212 108.118 12.404 107.95 12.5C107.878 12.692 107.746 12.788 107.554 12.788H103.63C103.39 12.788 103.186 12.716 103.018 12.572C102.874 12.404 102.814 12.212 102.838 11.996C102.862 11.348 103.174 10.628 103.774 9.836C104.398 9.044 105.334 8.36 106.582 7.784C107.854 7.208 109.414 6.92 111.262 6.92C114.214 6.92 116.398 7.58 117.814 8.9C119.23 10.196 119.938 11.948 119.938 14.156V25.1C119.938 25.34 119.854 25.556 119.686 25.748C119.518 25.916 119.302 26 119.038 26H114.862C114.622 26 114.406 25.916 114.214 25.748C114.046 25.556 113.962 25.34 113.962 25.1V23.84C113.434 24.584 112.69 25.196 111.73 25.676C110.794 26.132 109.678 26.36 108.382 26.36ZM110.074 22.256C111.178 22.256 112.066 21.896 112.738 21.176C113.434 20.456 113.782 19.4 113.782 18.008V17.504L110.722 18.044C108.562 18.428 107.482 19.184 107.482 20.312C107.482 20.912 107.734 21.392 108.238 21.752C108.742 22.088 109.354 22.256 110.074 22.256ZM135.701 26C135.437 26 135.221 25.916 135.053 25.748C134.885 25.58 134.801 25.364 134.801 25.1V8.18C134.801 7.916 134.885 7.7 135.053 7.532C135.221 7.364 135.437 7.28 135.701 7.28H139.841C140.105 7.28 140.321 7.364 140.489 7.532C140.681 7.7 140.777 7.916 140.777 8.18V9.548C141.425 8.756 142.253 8.12 143.261 7.64C144.293 7.16 145.457 6.92 146.753 6.92C148.865 6.92 150.581 7.64 151.901 9.08C153.221 10.496 153.881 12.488 153.881 15.056V25.1C153.881 25.34 153.797 25.556 153.629 25.748C153.461 25.916 153.245 26 152.981 26H148.445C148.205 26 147.989 25.916 147.797 25.748C147.629 25.556 147.545 25.34 147.545 25.1V15.272C147.545 14.144 147.269 13.28 146.717 12.68C146.165 12.056 145.373 11.744 144.341 11.744C143.333 11.744 142.541 12.056 141.965 12.68C141.389 13.28 141.101 14.144 141.101 15.272V25.1C141.101 25.34 141.017 25.556 140.849 25.748C140.681 25.916 140.465 26 140.201 26H135.701ZM177.913 33.92C175.633 33.92 173.785 33.548 172.369 32.804C170.953 32.06 169.933 31.208 169.309 30.248C168.709 29.288 168.409 28.484 168.409 27.836C168.409 27.62 168.505 27.428 168.697 27.26C168.889 27.092 169.105 27.008 169.345 27.008H173.917C174.157 27.008 174.337 27.056 174.457 27.152C174.601 27.272 174.733 27.464 174.853 27.728C175.093 28.28 175.417 28.712 175.825 29.024C176.233 29.36 176.869 29.528 177.733 29.528C178.837 29.528 179.653 29.252 180.181 28.7C180.709 28.172 180.973 27.272 180.973 26V23.588C179.749 24.932 177.997 25.604 175.717 25.604C173.293 25.604 171.433 24.896 170.137 23.48C168.865 22.04 168.169 19.964 168.049 17.252L168.013 16.28C168.013 13.376 168.661 11.096 169.957 9.44C171.253 7.76 173.173 6.92 175.717 6.92C176.941 6.92 178.021 7.16 178.957 7.64C179.893 8.096 180.685 8.72 181.333 9.512V8.18C181.333 7.916 181.417 7.7 181.585 7.532C181.777 7.364 181.993 7.28 182.233 7.28H186.373C186.637 7.28 186.853 7.376 187.021 7.568C187.213 7.736 187.309 7.94 187.309 8.18V25.496C187.309 28.232 186.493 30.32 184.861 31.76C183.229 33.2 180.913 33.92 177.913 33.92ZM177.661 20.924C178.741 20.924 179.545 20.6 180.073 19.952C180.601 19.28 180.901 18.44 180.973 17.432C180.997 17.264 181.009 16.892 181.009 16.316C181.009 15.764 180.997 15.404 180.973 15.236C180.925 14.228 180.625 13.4 180.073 12.752C179.545 12.08 178.741 11.744 177.661 11.744C176.533 11.744 175.717 12.08 175.213 12.752C174.709 13.424 174.433 14.348 174.385 15.524L174.349 16.316C174.349 17.732 174.589 18.86 175.069 19.7C175.549 20.516 176.413 20.924 177.661 20.924Z" fill="#FDFDFD"/>
</svg>
