<svg viewBox="-7 0 511 511.99994" xmlns="http://www.w3.org/2000/svg"><path d="m467.046875 314.742188-46.726563-46.035157-15.8125 15.855469 46.742188 46.058594c.289062.40625.671875 1.316406.757812 1.808594v43.886718h-19.601562c.269531.539063.433594 1.140625.433594 1.785156v18.851563c0 .644531-.164063 1.242187-.433594 1.785156h25.191406c9.253906 0 16.777344-7.542969 16.777344-16.816406v-49.648437c.003906-6.070313-3.011719-13.277344-7.328125-17.53125zm0 0" fill="#ce7a00"/><path d="m327.441406 348.53125c.046875-.328125.074219-.660156.074219-1v-22.421875c0-1.402344 1.1875-2.589844 2.59375-2.589844h62.585937c1.40625 0 2.59375 1.1875 2.59375 2.589844v48.945313h15v-48.945313c0-9.699219-7.890624-17.589844-17.59375-17.589844h-62.585937c-9.699219 0-17.59375 7.890625-17.59375 17.589844v22.421875c0 .339844.03125.671875.074219 1zm0 0" fill="#f39600"/><path d="m150.574219 477.136719h72.898437v20.863281h-72.898437zm0 0" fill="#72563c"/><path d="m150.574219 477.136719h20.785156v20.863281h-20.785156zm0 0" fill="#563d28"/><path d="m328.398438 477.136719h72.898437v20.863281h-72.898437zm0 0" fill="#72563c"/><path d="m328.398438 477.136719h20.785156v20.863281h-20.785156zm0 0" fill="#563d28"/><path d="m430.171875 468.902344c0 6.914062 5.628906 12.542968 12.546875 12.542968h6.984375c-.359375-1.113281-.558594-2.300781-.558594-3.535156v-8.242187c0-1.117188.167969-2.195313.46875-3.222657h-4.441406v-35.410156c0-6.917968-5.628906-12.542968-12.546875-12.542968h-20.1875v15h17.734375zm0 0" fill="#8a8c8e"/><path d="m485.105469 490.453125h-24.414063c-6.917968 0-12.546875-5.625-12.546875-12.542969v-8.242187c0-6.917969 5.628907-12.546875 12.546875-12.546875h24.414063c6.917969 0 12.546875 5.628906 12.546875 12.546875v8.242187c0 6.917969-5.628906 12.542969-12.546875 12.542969zm0 0" fill="#383838"/><path d="m380.632812 374.054688c.242188-.859376.378907-1.761719.378907-2.695313v-13.734375c0-5.550781-4.539063-10.089844-10.089844-10.089844h-189.96875c-5.554687 0-10.09375 4.539063-10.09375 10.089844v13.734375c0 .933594.136719 1.835937.378906 2.695313zm0 0" fill="#383838"/><path d="m213.117188 374.054688c-.238282-.859376-.378907-1.761719-.378907-2.695313v-13.734375c0-5.550781 4.542969-10.089844 10.09375-10.089844h-41.878906c-5.554687 0-10.09375 4.539063-10.09375 10.089844v13.734375c0 .933594.136719 1.835937.378906 2.695313zm0 0" fill="#282828"/><path d="m138.429688 400.996094v72.09375c0 2.773437 2.273437 5.046875 5.046874 5.046875h264.917969c2.773438 0 5.042969-2.273438 5.042969-5.046875v-72.09375zm0 0" fill="#9b5729"/><path d="m163.285156 473.089844v-72.09375h-24.855468v72.09375c0 2.773437 2.269531 5.046875 5.046874 5.046875h24.855469c-2.777343 0-5.046875-2.273438-5.046875-5.046875zm0 0" fill="#7f441c"/><path d="m198.46875 400.996094h154.933594v77.140625h-154.933594zm0 0" fill="#b57a4e"/><path d="m433.839844 396.949219c0 2.773437-2.269532 5.046875-5.046875 5.046875h-305.714844c-2.773437 0-5.046875-2.273438-5.046875-5.046875v-18.847657c0-2.777343 2.273438-5.046874 5.046875-5.046874h305.714844c2.773437 0 5.046875 2.269531 5.046875 5.046874zm0 0" fill="#7f441c"/><path d="m161.367188 396.949219v-18.847657c0-2.777343 2.273437-5.046874 5.046874-5.046874h-43.335937c-2.773437 0-5.046875 2.269531-5.046875 5.046874v18.847657c0 2.773437 2.273438 5.046875 5.046875 5.046875h43.335937c-2.773437 0-5.046874-2.269532-5.046874-5.046875zm0 0" fill="#602f0e"/><path d="m369.65625 207.203125c-7.734375-28.25-11.433594-63.167969-9.789062-97.496094.542968-18.140625 3.023437-47.253906 11.785156-82.9375.585937-2.398437 1.101562-4.507812-.429688-6.125-4.59375-6.617187-11.945312-11.066406-20.765625-12.554687-12.699219-2.144532-26.773437 1.8125-38.613281 10.84375-2.136719 1.625-4.167969 3.402344-6.042969 5.277344-8.183593 8.199218-13.335937 18.238281-14.566406 28.15625-12.292969-.667969-25.871094 4.570312-36.480469 14.292968-.667968.613282-1.332031 1.246094-1.96875 1.886719-9.542968 9.5625-15.128906 21.675781-15.515625 33.230469-11.53125.386718-23.617187 5.988281-33.15625 15.550781-.636719.636719-1.269531 1.304687-1.875 1.96875-9.710937 10.636719-14.9375 24.246094-14.265625 36.566406-9.894531 1.238281-19.910156 6.394531-28.097656 14.601563-1.871094 1.875-3.644531 3.914062-5.265625 6.054687-9.011719 11.863281-12.953125 25.96875-10.816406 38.699219 1.484375 8.835938 5.917969 16.203125 12.519531 20.808594 1.613281 1.542968 3.71875 1.023437 6.101562.4375 35.605469-8.785156 64.660157-11.273438 82.847657-11.816406 34.195312-1.648438 69.019531 2.058593 97.203125 9.8125zm0 0" fill="#ffaf10"/><path d="m365.652344 211.21875-74.417969-158.851562c-12.292969-.667969-25.871094 4.570312-36.480469 14.292968-.667968.613282-1.332031 1.246094-1.96875 1.886719-9.542968 9.5625-15.128906 21.675781-15.515625 33.230469l118.792969 119.054687zm0 0" fill="#f39600"/><path d="m346.46875 230.445312-158.496094-74.582031c-9.894531 1.234375-19.910156 6.394531-28.09375 14.601563-1.871094 1.875-3.644531 3.914062-5.269531 6.054687-9.007813 11.863281-12.953125 25.96875-10.816406 38.699219 1.484375 8.835938 5.921875 16.203125 12.519531 20.808594 1.613281 1.542968 3.71875 1.019531 6.101562.433594 35.605469-8.78125 64.664063-11.273438 82.847657-11.816407 34.195312-1.644531 69.019531 2.0625 97.207031 9.8125zm0 0" fill="#f39600"/><path d="m261.867188 206.65625c-18.183594.542969-47.242188 3.035156-82.84375 11.816406-2.386719.585938-4.492188 1.109375-6.101563-.433594-6.605469-4.605468-11.039063-11.972656-12.523437-20.808593-1.808594-10.792969.761718-22.566407 7.074218-33.132813-2.65625 1.851563-5.207031 3.972656-7.597656 6.367188-1.871094 1.871094-3.644531 3.910156-5.265625 6.050781-9.011719 11.863281-12.953125 25.96875-10.816406 38.699219 1.484375 8.839844 5.917969 16.203125 12.519531 20.8125 1.613281 1.539062 3.71875 1.019531 6.101562.433594 35.605469-8.785157 64.660157-11.273438 82.847657-11.816407 34.195312-1.648437 69.019531 2.058594 97.203125 9.8125l4.003906-4.011719-50.316406-23.675781c-11.316406-.601562-22.832032-.660156-34.285156-.113281zm0 0" fill="#ce7a00"/><path d="m421.882812 261.464844c1.722657 2.175781 1.527344 5.5625-.429687 7.523437l-17.816406 17.863281c-1.960938 1.964844-5.328125 2.140626-7.484375.394532l-55.679688-45.101563c-2.15625-1.746093-2.316406-4.78125-.359375-6.746093l30.480469-30.550782c1.960938-1.964844 4.972656-1.792968 6.695312.382813zm0 0" fill="#ffaf10"/><path d="m365.863281 242.148438c-2.15625-1.746094-2.316406-4.785157-.355469-6.75l19.894532-19.9375-8.109375-10.230469c-1.726563-2.171875-4.738281-2.34375-6.699219-.378907l-30.476562 30.546876c-1.960938 1.964843-1.800782 5.003906.355468 6.75l55.679688 45.101562c2.15625 1.746094 5.523437 1.566406 7.484375-.398438l7.785156-7.800781zm0 0" fill="#f39600"/><path d="m293.742188 439.105469c0-9.855469-7.972657-17.84375-17.808594-17.84375-9.832032 0-17.804688 7.988281-17.804688 17.84375s7.972656 17.847656 17.804688 17.847656c9.835937 0 17.808594-7.992187 17.808594-17.847656zm0 0" fill="#ffc987"/><path d="m273.007812 439.105469c0-7.191407 4.253907-13.375 10.367188-16.199219-2.265625-1.046875-4.78125-1.648438-7.441406-1.648438-9.832032 0-17.804688 7.992188-17.804688 17.847657s7.972656 17.847656 17.804688 17.847656c2.660156 0 5.175781-.601563 7.441406-1.648437-6.113281-2.828126-10.367188-9.007813-10.367188-16.199219zm0 0" fill="#ffaf68"/><path d="m275.933594 464.449219c-13.953125 0-25.304688-11.367188-25.304688-25.34375 0-13.980469 11.351563-25.351563 25.304688-25.351563s25.308594 11.371094 25.308594 25.351563c0 13.976562-11.351563 25.34375-25.308594 25.34375zm0-35.691407c-5.683594 0-10.304688 4.640626-10.304688 10.347657s4.621094 10.347656 10.304688 10.347656 10.308594-4.640625 10.308594-10.347656-4.625-10.347657-10.308594-10.347657zm0 0" fill="#9b5729"/><path d="m120.355469 117.726562c-2.664063-2.191406-6.207031-3.054687-9.710938-2.359374l-54.800781 10.804687c-6.273438 1.230469-11.003906 6.984375-11.003906 13.378906v60.203125c3.347656.648438 6.433594 2.261719 8.902344 4.710938 3.289062 3.25 5.097656 7.585937 5.097656 12.203125h1v-75.996094l49.707031-9.796875v56.125c3.347656.644531 6.429687 2.261719 8.898437 4.707031 3.289063 3.253907 5.101563 7.589844 5.101563 12.203125h1v-77.113281c0-3.574219-1.527344-6.882813-4.191406-9.070313zm0 0" fill="#ff99a3"/><path d="m94.875 236.945312c-2.550781 0-4.957031-.984374-6.773438-2.773437l-17.5-17.339844c-3.480468-3.445312-5.398437-8.035156-5.398437-12.921875 0-4.886718 1.921875-9.476562 5.40625-12.917968 3.453125-3.421876 8.046875-5.3125 12.9375-5.3125 4.15625 0 8.109375 1.371093 11.332031 3.898437 3.222656-2.527344 7.175782-3.898437 11.332032-3.898437 4.882812 0 9.480468 1.886718 12.941406 5.316406 3.480468 3.445312 5.394531 8.03125 5.394531 12.914062 0 4.882813-1.910156 9.46875-5.386719 12.917969l-17.492187 17.328125c-1.832031 1.804688-4.238281 2.789062-6.792969 2.789062zm0 0" fill="#f66"/><path d="m490.152344 512h-372.121094c-4.140625 0-7.5-3.355469-7.5-7.5s3.359375-7.5 7.5-7.5h372.121094c4.140625 0 7.5 3.355469 7.5 7.5s-3.359375 7.5-7.5 7.5zm0 0" fill="#7f441c"/><path d="m30.171875 249.703125c-2.5625 0-4.972656-.992187-6.789063-2.792969l-17.484374-17.320312c-3.480469-3.445313-5.398438-8.035156-5.398438-12.921875 0-4.890625 1.917969-9.476563 5.402344-12.921875 3.449218-3.421875 8.046875-5.3125 12.9375-5.3125 4.160156 0 8.109375 1.371094 11.332031 3.898437 3.214844-2.527343 7.167969-3.898437 11.335937-3.898437 4.882813 0 9.476563 1.890625 12.941407 5.320312 3.476562 3.4375 5.394531 8.023438 5.394531 12.914063 0 4.886719-1.917969 9.476562-5.394531 12.921875l-17.492188 17.320312c-1.804687 1.796875-4.21875 2.792969-6.785156 2.792969zm0 0" fill="#f66"/><path d="m200.902344.09375-28.242188 5.90625c-4.585937 1-7.5 5.242188-7.5 9.386719v55.527343c3.351563.644532 6.433594 2.257813 8.902344 4.707032 3.289062 3.25 5.097656 7.585937 5.097656 12.203125h1v-60.765625l20.777344-4.792969c2.703125-.625 4.917969-3.40625 4.917969-6.179687v-11.921876c0-2.777343-2.226563-4.605468-4.953125-4.070312zm0 0" fill="#ff99a3"/><path d="m150.492188 120.859375c-2.550782 0-4.957032-.988281-6.773438-2.777344l-17.5-17.339843c-3.480469-3.441407-5.398438-8.03125-5.398438-12.917969s1.917969-9.476563 5.402344-12.921875c3.453125-3.421875 8.050782-5.308594 12.933594-5.308594 4.160156 0 8.113281 1.371094 11.335938 3.894531 3.222656-2.523437 7.175781-3.894531 11.332031-3.894531 4.886719 0 9.480469 1.886719 12.941406 5.316406 3.476563 3.4375 5.394531 8.027344 5.394531 12.914063 0 4.882812-1.917968 9.472656-5.398437 12.917969l-17.484375 17.324218c-1.824219 1.804688-4.230469 2.792969-6.785156 2.792969zm0 0" fill="#f66"/></svg>