<svg id="Capa_1" enable-background="new 0 0 512 512" viewBox="0 0 512 512" xmlns="http://www.w3.org/2000/svg"><g><path d="m315.64 349.25c-1.79 8.07-9.78 13.19-17.89 11.39-8.09-1.79-13.19-9.81-11.39-17.89 7.08-31.86 1.22-64.53-15.36-91.41v109.66c0 8.28-6.72 15-15 15s-15-6.72-15-15v-150c0-9.02 7.33-14.94 15-14.99 3.38-.02 6.84 1.1 9.76 3.6 43.08 36.92 62.19 94.26 49.88 149.64z" fill="#c3ea21"/><path d="m315.64 349.25c-1.79 8.07-9.78 13.19-17.89 11.39-8.09-1.79-13.19-9.81-11.39-17.89 7.08-31.86 1.22-64.53-15.36-91.41v109.66c0 8.28-6.72 15-15 15v-179.99c3.38-.02 6.84 1.1 9.76 3.6 43.08 36.92 62.19 94.26 49.88 149.64z" fill="#9cdd05"/><g><g><g><g><path d="m436 436c-8.284 0-15-6.716-15-15v-120c0-8.284 6.716-15 15-15 41.457 0 76 33.535 76 75 0 41.457-34.534 75-76 75z" fill="#6b0"/></g></g></g></g><g><path d="m76 436c-41.459 0-76-33.535-76-75 0-41.458 34.535-75 76-75 8.284 0 15 6.716 15 15v120c0 8.284-6.716 15-15 15z" fill="#9cdd05"/></g><g><path d="m417.35 107.06c-34.13-40.52-88.41-61.06-161.35-61.06s-127.22 20.54-161.35 61.06c-43.34 51.45-45.84 123.77-34.36 190.33.3 1.71.63 3.63.73 4.4.41 7.92 6.96 14.21 14.98 14.21 8.28 0 15-6.72 15-15 0-2.07-.34-4.01-1.15-8.71-12.62-73.24-3.29-129.06 27.74-165.9 28.16-33.44 74.73-50.39 138.41-50.39s110.25 16.95 138.41 50.39c31.03 36.84 40.36 92.66 27.74 165.9-.82 4.7-1.15 6.64-1.15 8.71 0 8.28 6.72 15 15 15 8.02 0 14.57-6.29 14.98-14.21.1-.77.43-2.69.73-4.4 11.47-66.55 8.98-138.88-34.36-190.33z" fill="#dfe7f4"/></g><path d="m451.71 297.39c-.3 1.71-.63 3.63-.73 4.4-.41 7.92-6.96 14.21-14.98 14.21-8.28 0-15-6.72-15-15 0-2.07.33-4.01 1.15-8.71 12.62-73.24 3.29-129.06-27.74-165.9-28.16-33.44-74.73-50.39-138.41-50.39v-30c72.94 0 127.22 20.54 161.35 61.06 43.34 51.45 45.83 123.78 34.36 190.33z" fill="#c7cfe1"/><g><path d="m106 466c-24.813 0-45-20.187-45-45v-120c0-24.813 20.187-45 45-45s45 20.187 45 45v120c0 24.813-20.187 45-45 45z" fill="#596c76"/></g><g><path d="m406 466c-24.813 0-45-20.187-45-45v-120c0-24.813 20.187-45 45-45s45 20.187 45 45v120c0 24.813-20.187 45-45 45z" fill="#3b4a51"/></g><g><path d="m256 327.5c-7.96-7.15-18.49-11.5-30-11.5-24.81 0-45 20.19-45 45s20.19 45 45 45c11.51 0 22.04-4.35 30-11.5 9.2-8.24 15-20.2 15-33.5s-5.8-25.26-15-33.5z" fill="#c3ea21"/></g><path d="m271 361c0 13.3-5.8 25.26-15 33.5v-67c9.2 8.24 15 20.2 15 33.5z" fill="#9cdd05"/></g></svg>