<?xml version="1.0" encoding="iso-8859-1"?>
<!-- Generator: Adobe Illustrator 19.0.0, SVG Export Plug-In . SVG Version: 6.00 Build 0)  -->
<svg version="1.1" id="Capa_1" xmlns="http://www.w3.org/2000/svg" xmlns:xlink="http://www.w3.org/1999/xlink" x="0px" y="0px"
	 viewBox="0 0 511.987 511.987" style="enable-background:new 0 0 511.987 511.987;" xml:space="preserve">
<path style="fill:#FFB69E;" d="M224.016,241.233c-7.708,0-15.164-4.137-19.054-11.41l-49.255-92.084
	c-3.323-6.213-3.405-13.656-0.22-19.941c3.185-6.285,9.237-10.62,16.213-11.613l91.617-13.045
	c11.797-1.682,22.734,6.525,24.415,18.329c1.68,11.803-6.526,22.734-18.329,24.415l-61.073,8.695l34.703,64.88
	c5.623,10.513,1.659,23.594-8.853,29.217C230.938,240.411,227.452,241.233,224.016,241.233z"/>
<path style="fill:#6EAA50;" d="M287.732,111.47c-1.681-11.804-12.618-20.012-24.415-18.329l-45.985,6.547l8.582,42.388l43.487-6.192
	C281.205,134.204,289.412,123.273,287.732,111.47z"/>
<g>
	<path style="fill:#FFB69E;" d="M332.226,115.523l-53.623-20.475c-16.607-6.341-35.21,1.982-41.551,18.589l-58.907,154.278
		c0,0-3.882,8.972-0.208,19.035l16.133,45.954l-67.305-7.343c-13.806-1.506-26.218,8.464-27.724,22.269
		c-1.506,13.806,8.464,26.218,22.269,27.724c113.074,12.285,107.159,11.822,109.707,11.82c7.621,0,14.893-3.466,19.692-9.512
		c5.37-6.766,6.892-15.813,4.031-23.963l-23.001-65.522l60.17,22.974l58.907-154.278
		C357.155,140.467,348.834,121.864,332.226,115.523z"/>
	<path style="fill:#FFB69E;" d="M262.632,510.53c-13.087-4.647-19.929-19.022-15.283-32.11l37.939-106.855l-64.181-99.707
		c-7.459-11.714-3.26-27.175,8.454-34.633c11.714-7.458,27.257-4.009,34.716,7.706l70.023,109.977
		c4.16,6.533,5.077,14.62,2.485,21.919l-42.046,118.421C290.119,508.267,275.781,515.197,262.632,510.53z"/>
</g>
<path style="fill:#3C5A73;" d="M332.226,115.523l-53.623-20.475c-16.607-6.341-35.21,1.982-41.551,18.589l-58.907,154.278
	c0,0-3.882,8.972-0.208,19.035l16.133,45.954l56.368,8.74l-18.699-53.266l47.499,73.681l45.107-22.795l-26.938-42.308l53.41-139.882
	C357.155,140.467,348.834,121.864,332.226,115.523z"/>
<path style="fill:#82BE50;" d="M178.145,267.915l58.907-154.278c6.341-16.607,24.944-24.93,41.551-18.589l53.623,20.475
	c16.607,6.341,24.93,24.944,18.589,41.551l-53.41,139.882L178.145,267.915z"/>
<g>
	<circle style="fill:#FFB69E;" cx="336.263" cy="47.647" r="47.647"/>
	<path style="fill:#FFB69E;" d="M386.132,273.685L302.6,252.216c-7.002-1.8-12.637-6.984-15.014-13.812l-34.558-99.291
		c-3.919-11.26,2.033-23.565,13.292-27.484c11.257-3.926,23.565,2.033,27.484,13.292l30.753,88.36l72.322,18.589
		c11.548,2.968,18.502,14.734,15.534,26.281C409.45,269.684,397.689,276.657,386.132,273.685z"/>
</g>
<path style="fill:#6EAA50;" d="M268.973,184.924l40.193-15.867l-15.361-44.134c-3.919-11.26-16.226-17.218-27.484-13.292
	c-11.26,3.919-17.212,16.224-13.292,27.484L268.973,184.924z"/>
<g>
</g>
<g>
</g>
<g>
</g>
<g>
</g>
<g>
</g>
<g>
</g>
<g>
</g>
<g>
</g>
<g>
</g>
<g>
</g>
<g>
</g>
<g>
</g>
<g>
</g>
<g>
</g>
<g>
</g>
</svg>
