<svg width="20" height="20" viewBox="0 0 20 20" fill="none" xmlns="http://www.w3.org/2000/svg">
<path d="M19.3288 4.45793L17.9269 4.45787V3.1047C17.9269 2.7949 17.6838 2.53169 17.3552 2.48585C17.2978 2.47781 15.932 2.29284 14.2874 2.57187C12.4539 2.88293 10.9917 3.65002 9.99997 4.80967C9.00818 3.65002 7.54597 2.88293 5.71257 2.57187C4.06786 2.2929 2.70208 2.47781 2.64477 2.48585C2.31615 2.53175 2.07306 2.79496 2.07306 3.1047V4.45787H0.671109C0.300538 4.45787 0 4.73809 0 5.08369V16.8758C0 17.0784 0.105185 17.2685 0.282356 17.3859C0.459527 17.5033 0.686664 17.5334 0.891849 17.4668C0.942219 17.4505 5.97136 15.8501 9.72145 17.4451C9.89842 17.5204 10.1016 17.5204 10.2786 17.4451C14.0181 15.8546 19.058 17.4506 19.1081 17.4668C19.1801 17.4901 19.2545 17.5016 19.3288 17.5016C19.4663 17.5016 19.6025 17.4622 19.7176 17.386C19.8948 17.2685 20 17.0785 20 16.8758V5.08375C19.9999 4.73816 19.6995 4.45793 19.3288 4.45793ZM1.34229 16.0385V5.70944H2.07306V14.0432C2.07306 14.225 2.15838 14.3977 2.30592 14.5166C2.45346 14.6354 2.64969 14.6887 2.84255 14.6622C2.87959 14.6571 5.79513 14.2839 7.92523 15.6466C5.30133 15.2283 2.67521 15.7122 1.34229 16.0385ZM9.32886 15.0823C8.39068 14.2919 7.16866 13.7574 5.71257 13.5104C5.01183 13.3915 4.36174 13.3568 3.84187 13.3568C3.68753 13.3568 3.54463 13.3599 3.41541 13.3647V3.67935H3.41534C4.70524 3.6251 7.84307 3.75369 9.32886 6.10219V15.0823ZM10.6711 6.10225C12.1515 3.7638 15.2943 3.62937 16.5846 3.68092V13.3647C16.0201 13.3435 15.196 13.3562 14.2874 13.5104C12.8313 13.7574 11.6093 14.2918 10.6711 15.0823V6.10225ZM12.0725 15.647C14.2028 14.2835 17.1199 14.6571 17.1563 14.6621C17.3496 14.6892 17.5457 14.6362 17.6937 14.5174C17.8418 14.3984 17.9269 14.2254 17.9269 14.0432V5.7095H18.6576V16.0385C17.3243 15.7121 14.6971 15.228 12.0725 15.647Z" fill="#6C6C6C"/>
</svg>
