<svg width="20" height="19" viewBox="0 0 20 19" fill="none" xmlns="http://www.w3.org/2000/svg">
<g clip-path="url(#clip0)">
<path d="M17.6275 13.0908C20.7916 10.1405 20.7915 5.33988 17.6275 2.38952C14.4633 -0.560831 9.31491 -0.560831 6.15081 2.38952C3.46645 4.8925 3.0599 8.61506 4.93007 11.522C4.93007 11.522 5.06441 11.7321 4.88298 11.9012C3.84793 12.8662 0.742589 15.7618 0.742589 15.7618C-0.0815195 16.5302 -0.277705 17.6046 0.453111 18.2862L0.57894 18.4034C1.30976 19.0849 2.46213 18.902 3.28617 18.1336C3.28617 18.1336 6.38494 15.2442 7.41786 14.2811C7.60799 14.1038 7.8333 14.2291 7.8333 14.2291C10.9508 15.9728 14.9431 15.5938 17.6275 13.0908ZM7.64903 11.6938C5.31104 9.51379 5.31111 5.9667 7.6491 3.78669C9.98709 1.60674 13.7912 1.60668 16.1292 3.78669C18.4671 5.96664 18.4671 9.51379 16.1292 11.6938C13.7912 13.8737 9.98709 13.8737 7.64903 11.6938Z" fill="#6C6C6C"/>
<path d="M8.16634 7.29135C8.05751 7.29135 7.94689 7.27141 7.84026 7.22942C7.41432 7.06132 7.21504 6.60307 7.39532 6.20585C8.52836 3.70919 11.6285 2.53754 14.306 3.59402C14.732 3.76211 14.9312 4.22037 14.751 4.61758C14.5706 5.0148 14.0793 5.20049 13.6532 5.03246C11.8263 4.31168 9.71102 5.1111 8.93806 6.81448C8.80283 7.11239 8.49267 7.29135 8.16634 7.29135Z" fill="#6C6C6C"/>
</g>
<defs>
<clipPath id="clip0">
<rect width="20" height="18.6486" fill="white" transform="translate(0 0.177002)"/>
</clipPath>
</defs>
</svg>
