<svg width="23" height="22" viewBox="0 0 23 22" fill="none" xmlns="http://www.w3.org/2000/svg">
<path d="M9.55507 2.74608L5.18647 5.79646H1.19688C0.538595 5.79646 0 6.29865 0 6.91245V14.6872C0 15.3012 0.538595 15.8032 1.19688 15.8032H5.18647L9.55507 18.8536C10.353 19.4116 11.4701 18.8908 11.4701 17.9608V3.63887C11.4701 2.70888 10.333 2.18808 9.55507 2.74608Z" fill="#2F2F2F"/>
<path d="M15.4198 4.56842C14.8812 4.06622 13.9835 4.06622 13.4451 4.56842C12.9065 5.07062 12.9065 5.90761 13.4451 6.40981C16.0383 8.8278 16.0383 12.7526 13.4451 15.1705C12.9065 15.6727 12.9065 16.5097 13.4451 17.0117C13.7242 17.2721 14.0832 17.3837 14.4224 17.3837C14.7615 17.3837 15.1407 17.2537 15.3998 16.9931C19.1101 13.5894 19.1101 8.0094 15.4198 4.56842Z" fill="#2F2F2F"/>
<path d="M16.9757 1.64962C16.4373 2.15182 16.4373 2.98882 16.9757 3.49101C19.0703 5.444 20.2274 8.02939 20.2274 10.8008C20.2274 13.5722 19.0703 16.1575 16.9757 18.1105C16.4373 18.6127 16.4373 19.4497 16.9757 19.9519C17.255 20.2121 17.6141 20.3425 17.9532 20.3425C18.3122 20.3425 18.6713 20.2123 18.9306 19.9705C21.5438 17.5339 22.9998 14.279 22.9998 10.8194C22.9998 7.35979 21.5636 4.12341 18.9306 1.66822C18.412 1.14743 17.5343 1.14743 16.9757 1.64962Z" fill="#2F2F2F"/>
</svg>
